<svg width="84" height="42" viewBox="0 0 84 42" fill="none" xmlns="http://www.w3.org/2000/svg">
<g clip-path="url(#clip0_1_2463)" filter="url(#filter0_d_1_2463)">
<path d="M77.1422 11C77.1422 14.21 74.1549 17 71.1716 17V11L69.1814 11.0001V25H71.1716V19C74.1569 19 77.1422 21.7912 77.1422 25H79.1324C79.1324 21.0598 77.1422 19 74.3847 18C77.1422 17 79.1324 14.5085 79.1324 11H77.1422ZM12.4608 11C12.4608 14.21 9.47355 17 6.4902 17V11L4.5 11.0001V25H6.4902V19C9.47549 19 12.4608 21.7912 12.4608 25H14.451C14.451 21.0598 12.4608 19 9.70337 18C12.4608 17 14.451 14.5085 14.451 11H12.4608ZM20.6446 12.9536C20.6308 12.9914 16.4412 24.5732 16.4412 24.5732L18.6481 25.36C18.6481 25.36 22.8779 13.6631 22.8825 13.6463C22.9902 13.3232 23.2934 13.3266 23.3932 13.3278C23.5951 13.327 23.8358 13.388 23.9425 13.6831L28.1656 25.36L30.3725 24.5732L26.1688 12.9525C25.9409 12.2484 25.1009 11.0013 23.4187 11.0002C21.6879 10.9868 20.868 12.2236 20.6446 12.9536ZM54.2549 18C54.2549 15.2429 56.4868 13 59.2304 13C61.9739 13 64.2059 15.2429 64.2059 18C64.2059 20.7571 61.9739 23 59.2304 23C56.4868 23 54.2549 20.7571 54.2549 18ZM52.2647 18V34H54.2549V22.51C55.1334 24.0506 57.4758 24.9666 59.2304 25C63.13 24.9666 66.2717 21.8339 66.1961 18C66.2717 14.1327 63.13 11 59.2304 11C55.4065 11 52.2647 14.1327 52.2647 18Z" fill="black"/>
<path d="M48.0442 20.2256L49.5914 21.4214C49.5835 21.432 48.725 22.5291 47.6493 24.6541C46.3339 27.2505 45.7593 28.6841 45.7534 28.6976L45.7131 28.7868C43.7612 32.5345 40.6128 34.2153 37.2905 33.2842C35.5223 32.7876 34.0567 31.6432 33.1627 30.0603C32.2688 28.4764 32.0527 26.6434 32.5547 24.8985L37.1039 9.05904C37.5066 7.6585 38.4379 6.49656 39.7248 5.78757C41.0126 5.07857 42.5028 4.90787 43.9223 5.30553C46.8497 6.12703 48.555 9.1473 47.724 12.0376L47.7171 12.0589L44.2661 23.0751L44.272 23.0537C43.6463 25.2292 41.4586 26.4572 39.2915 25.8499C38.2503 25.558 37.3976 24.9015 36.8897 24.0013C36.371 23.0829 36.2532 21.9926 36.5597 20.9277L39.711 10.1754L41.5981 10.7147L38.4477 21.4622C38.2866 22.0247 38.3426 22.5901 38.6059 23.0566C38.8623 23.5105 39.2847 23.8316 39.8279 23.984C40.9537 24.2992 42.0519 23.6715 42.382 22.5242L42.3889 22.5018C42.3889 22.5018 45.8221 11.5429 45.8339 11.5051C45.9253 11.187 45.9695 10.866 45.9695 10.5498C45.9695 9.02024 44.9479 7.61001 43.385 7.17161C42.4704 6.91556 41.5107 7.02516 40.6816 7.48198C39.8534 7.93783 39.2532 8.6866 38.9939 9.5886L34.4447 25.428C33.705 28.0002 35.2227 30.6868 37.8279 31.4181C41.1904 32.3609 43.216 29.3251 43.9469 27.9352C44.0618 27.654 44.6541 26.2312 45.8919 23.787C47.0668 21.4679 48.0049 20.275 48.0442 20.2256Z" fill="#EF3124"/>
</g>
<defs>
<filter id="filter0_d_1_2463" x="0.5" y="0" width="83" height="44" filterUnits="userSpaceOnUse" color-interpolation-filters="sRGB">
<feFlood flood-opacity="0" result="BackgroundImageFix"/>
<feColorMatrix in="SourceAlpha" type="matrix" values="0 0 0 0 0 0 0 0 0 0 0 0 0 0 0 0 0 0 127 0" result="hardAlpha"/>
<feOffset dy="4"/>
<feGaussianBlur stdDeviation="2"/>
<feComposite in2="hardAlpha" operator="out"/>
<feColorMatrix type="matrix" values="0 0 0 0 0 0 0 0 0 0 0 0 0 0 0 0 0 0 0.25 0"/>
<feBlend mode="normal" in2="BackgroundImageFix" result="effect1_dropShadow_1_2463"/>
<feBlend mode="normal" in="SourceGraphic" in2="effect1_dropShadow_1_2463" result="shape"/>
</filter>
<clipPath id="clip0_1_2463">
<rect width="75" height="36" fill="white" transform="translate(4.5)"/>
</clipPath>
</defs>
</svg>
